<svg xmlns="http://www.w3.org/2000/svg" xmlns:xlink="http://www.w3.org/1999/xlink" viewBox="0 0 60 38" version="1.1" x="0px" y="0px"><title>cutlery</title><desc>Created with Sketch.</desc><g stroke="none" stroke-width="1" fill="none" fill-rule="evenodd"><g transform="translate(-120.000000, -1152.000000)" fill="#000000"><g transform="translate(120.000000, 1152.000000)"><path d="M55.8707565,2.49225318 C57.0256291,2.68473194 58,3.8317731 58,4.99420208 L58,21 L54,21 L54,2.19995117 L55.8707565,2.49225318 Z M52,1 L52,22 C52,22.5522847 52.4477153,23 53,23 L59,23 C59.5522847,23 60,22.5522847 60,22 L60,4.99420208 C60,2.85294298 58.3176708,0.872484707 56.1995545,0.519465332 L53.164399,0.0136060762 C52.5548673,-0.0879825415 52,0.382060563 52,1 Z"></path><path d="M30,38 C40.4934102,38 49,29.4934102 49,19 C49,8.50658975 40.4934102,0 30,0 C19.5065898,0 11,8.50658975 11,19 C11,29.4934102 19.5065898,38 30,38 L30,38 Z M30,36 C20.6111593,36 13,28.3888407 13,19 C13,9.61115925 20.6111593,2 30,2 C39.3888407,2 47,9.61115925 47,19 C47,28.3888407 39.3888407,36 30,36 L30,36 Z"></path><path d="M30,30 C36.0751322,30 41,25.0751322 41,19 C41,12.9248678 36.0751322,8 30,8 C23.9248678,8 19,12.9248678 19,19 C19,25.0751322 23.9248678,30 30,30 L30,30 Z M30,28 C25.0294373,28 21,23.9705627 21,19 C21,14.0294373 25.0294373,10 30,10 C34.9705627,10 39,14.0294373 39,19 C39,23.9705627 34.9705627,28 30,28 L30,28 Z"></path><path d="M56,23 L56,36 L54,36 L54,23 L56,23 Z M53,21 C52.4477153,21 52,21.4477153 52,22 L52,37 C52,37.5522847 52.4477153,38 53,38 L57,38 C57.5522847,38 58,37.5522847 58,37 L58,22 C58,21.4477153 57.5522847,21 57,21 L53,21 L53,21 Z"></path><path d="M6,11.9999912 L6,20 C6,20.5522847 5.55228475,21 5,21 C4.44771525,21 4,20.5522847 4,20 L4,11.9999911 C1.32223942,11.9951032 0,9.97864853 0,7.00417376 L0,1 C0,0.44771525 0.44771525,0 1,0 C1.55228475,0 2,0.44771525 2,1 L2,7.00417376 C2,9.00582724 2.64680333,9.99525281 4,9.99998296 L4,1 C4,0.44771525 4.44771525,0 5,0 C5.55228475,0 6,0.44771525 6,1 L6,9.99998327 C7.35953846,9.9953182 8,9.01490901 8,7.00417376 L8,1.00247329 C8,0.450188545 8.44771525,0.00247329473 9,0.00247329473 C9.55228475,0.00247329473 10,0.450188545 10,1.00247329 L10,7.00417376 C10,9.98762374 8.68449668,11.9951371 6,11.9999912 L6,11.9999912 Z"></path><path d="M6,21 L6,36 L4,36 L4,21 L6,21 Z M3,19 C2.44771525,19 2,19.4477153 2,20 L2,37 C2,37.5522847 2.44771525,38 3,38 L7,38 C7.55228475,38 8,37.5522847 8,37 L8,20 C8,19.4477153 7.55228475,19 7,19 L3,19 L3,19 Z"></path></g></g></g></svg>